<svg viewBox="0 0 31 15" fill="none" xmlns="http://www.w3.org/2000/svg">
    <path fill-rule="evenodd" clip-rule="evenodd" d="M1.93 7.444A2.04 2.04 0 013 7.143c.515 0 .674.305.674.754v3.35a.495.495 0 00.138.417.48.48 0 00.413.137h.836a.481.481 0 00.417-.135.495.495 0 00.14-.42V7.605c0-1.165-.473-2.037-2.09-2.037a3.194 3.194 0 00-1.56.39V3.246a.5.5 0 00-.15-.437.485.485 0 00-.44-.122H.544a.481.481 0 00-.404.146.495.495 0 00-.131.413v7.982a.495.495 0 00.13.43c.11.114.267.166.421.142h.836a.481.481 0 00.41-.15.495.495 0 00.125-.421V7.444zM9.294 7.136c.657 0 .894.422.894 1.64 0 1.22-.237 1.641-.894 1.641-.658 0-.9-.421-.9-1.64 0-1.219.242-1.64.9-1.64zm0 4.829c2.213 0 2.809-1.303 2.809-3.188 0-1.885-.595-3.188-2.81-3.188-2.213 0-2.813 1.303-2.813 3.188 0 1.885.6 3.188 2.814 3.188zM13.45 5.831l-.546.147c-.349.097-.483.257-.483.568v.274a.493.493 0 00.558.555h.47v2.457c0 1.422.617 2.133 2.33 2.133.182 0 .363-.017.541-.05a.589.589 0 00.487-.602v-.396a.497.497 0 00-.52-.505h-.118c-.617 0-.797-.269-.797-.736v-2.3h.932a.486.486 0 00.558-.552v-.48a.493.493 0 00-.558-.555h-.94V4.78c0-.374-.219-.626-.727-.492l-.625.169c-.42.117-.58.252-.58.601l.017.774zM20.063 6.308a.494.494 0 00-.135-.419.475.475 0 00-.411-.137h-.8a.475.475 0 00-.41.137.495.495 0 00-.136.419v6.212c.02.2-.044.4-.175.55a.703.703 0 01-.516.242c-.415.05-.535.283-.535.548v.552c0 .363.274.544.712.544 1.243 0 2.406-.653 2.406-2.293V6.308zM24.29 9.008v1.337c-.241.203-.55.307-.864.29a.657.657 0 01-.509-.196.67.67 0 01-.189-.516c0-.472.217-.733.76-.81l.803-.105zm-.71-1.86c.519 0 .71.144.71.423v.383l-1.094.11c-1.078.11-2.268.35-2.268 1.982 0 .906.518 1.918 2.043 1.918a2.605 2.605 0 001.762-.628l.05.088c.155.279.264.371.565.371h.254a.478.478 0 00.415-.134.488.488 0 00.137-.418V7.87c0-1.35-.418-2.281-2.573-2.281a6.532 6.532 0 00-1.847.278.599.599 0 00-.418.641v.325a.567.567 0 00.235.475c.152.109.347.135.521.069a7.131 7.131 0 011.513-.228h-.005zM30.998 6.132c0-.337-.166-.543-.706-.543a2.8 2.8 0 00-1.726.602c-.17-.3-.208-.421-.54-.421h-.298a.477.477 0 00-.415.139.493.493 0 00-.133.42v4.926a.492.492 0 00.14.412.477.477 0 00.408.135h.83a.477.477 0 00.41-.136.493.493 0 00.137-.415V7.546a2.426 2.426 0 011.357-.374.486.486 0 00.395-.143.501.501 0 00.14-.4v-.497z" fill="#242424"/>
    <path d="M20.852 1.564C20.15.281 18.082 0 18.082 0a1.235 1.235 0 01-.261 1.916c-.77.533-1.073 1.225-.745 1.984.264.532.792.877 1.381.902a1.653 1.653 0 01-.075-1.124l.038-.13a.651.651 0 00.686.327.774.774 0 00.44-.94 1.023 1.023 0 00-.103-.272h.041c.441.126.653.792.478 1.489-.054.21-.144.408-.266.587a2.109 2.109 0 001.402-1.41 2.493 2.493 0 00-.246-1.765z" fill="#242424"/>
</svg>
